<?xml version="1.0" standalone="no"?>
<!DOCTYPE svg PUBLIC "-//W3C//DTD SVG 20010904//EN"
 "http://www.w3.org/TR/2001/REC-SVG-20010904/DTD/svg10.dtd">
<svg version="1.0" xmlns="http://www.w3.org/2000/svg"
 width="376.000000pt" height="376.000000pt" viewBox="0 0 376.000000 376.000000"
 preserveAspectRatio="xMidYMid meet">
<metadata>
Created by potrace 1.11, written by Peter Selinger 2001-2013
</metadata>
<g transform="translate(0.000000,376.000000) scale(0.100000,-0.100000)"
fill="#000000" stroke="none">
<path d="M1745 3710 c-117 -8 -202 -22 -275 -43 l-45 -13 0 -94 c0 -79 3 -95
15 -93 8 1 73 13 145 27 106 21 157 26 290 26 160 0 352 -23 431 -52 18 -6 35
-10 37 -7 3 2 8 46 11 96 l7 93 -27 10 c-100 38 -398 63 -589 50z"/>
<path d="M2594 3464 c-31 -41 -54 -77 -52 -78 1 -2 46 -24 99 -50 155 -76 368
-246 485 -386 70 -84 67 -80 89 -117 11 -18 24 -33 30 -33 6 0 33 26 60 58 28
31 53 59 57 60 17 8 6 38 -34 91 -50 67 -256 275 -313 316 -22 16 -42 31 -45
34 -28 31 -284 181 -309 181 -6 0 -36 -34 -67 -76z"/>
<path d="M1020 3494 c-217 -120 -432 -304 -570 -487 l-51 -68 34 -37 c19 -20
48 -52 63 -70 l29 -33 42 60 c126 178 341 361 566 481 87 46 96 54 84 69 -57
80 -95 120 -112 120 -11 1 -49 -15 -85 -35z"/>
<path d="M1699 3490 c-410 -39 -834 -283 -1090 -625 -300 -401 -400 -906 -273
-1385 99 -377 341 -713 666 -924 103 -67 282 -154 388 -189 250 -83 619 -96
869 -31 170 44 372 131 501 216 326 214 591 579 675 928 50 204 49 200 49 420
0 187 -3 228 -23 315 -83 364 -243 643 -502 875 -81 73 -270 205 -339 237
-321 150 -578 196 -921 163z m328 -70 c510 -45 961 -343 1210 -800 42 -77 98
-214 118 -285 9 -33 21 -73 25 -90 33 -112 48 -384 30 -535 -20 -175 -67 -331
-149 -500 -51 -104 -50 -103 -135 -220 -203 -279 -472 -469 -812 -574 -150
-46 -425 -67 -604 -47 -629 73 -1159 536 -1315 1148 -13 50 -31 155 -40 232
-16 129 -16 150 0 288 28 253 79 417 193 618 104 183 238 334 412 464 96 71
265 168 355 203 96 37 132 48 217 67 85 20 223 35 343 39 22 1 90 -3 152 -8z"/>
<path d="M1750 3399 c-121 -13 -198 -29 -305 -62 -55 -16 -107 -33 -115 -38
-8 -4 -37 -17 -65 -29 -279 -121 -542 -366 -702 -655 -46 -83 -119 -264 -129
-320 -3 -22 -9 -44 -12 -50 -3 -5 -7 -16 -8 -25 -28 -177 -34 -232 -34 -320 0
-310 83 -587 255 -845 180 -271 471 -495 760 -583 163 -51 205 -60 300 -71
685 -80 1320 292 1586 930 73 177 99 298 106 509 12 348 -69 634 -256 907 -63
92 -175 222 -227 264 -17 13 -48 39 -70 57 -226 188 -500 300 -818 331 -122
12 -157 12 -266 0z m-109 -121 c-1 -5 -1 -19 -1 -33 0 -30 -60 -91 -98 -98
-48 -10 -154 -88 -175 -129 l-19 -38 -76 -2 c-70 -2 -72 -2 -19 -5 62 -4 70
-12 33 -36 -69 -46 -112 -113 -125 -197 -1 -3 -49 -6 -109 -7 -92 -1 -119 -6
-191 -32 -47 -17 -87 -28 -90 -25 -3 3 5 24 17 47 20 37 21 39 3 17 -11 -14
-27 -39 -36 -57 -17 -35 -59 -73 -81 -73 -8 0 -14 3 -14 6 0 21 130 174 148
174 7 0 10 -4 7 -10 -3 -5 -4 -10 -1 -10 3 0 21 21 41 48 20 26 55 59 78 74
23 15 47 31 52 36 6 4 18 7 28 6 12 -1 13 -1 2 3 -8 2 -15 8 -15 12 0 4 48 40
108 78 88 58 273 154 472 246 35 16 61 18 61 5z m648 -53 c123 -54 263 -129
368 -197 102 -66 126 -88 98 -88 -10 0 10 -14 43 -31 39 -19 76 -47 98 -75 43
-52 104 -147 99 -152 -2 -3 -39 8 -82 23 -59 20 -105 28 -190 32 -102 5 -113
8 -113 25 0 22 -45 114 -60 123 -6 4 -10 -11 -10 -39 0 -32 -5 -48 -17 -55
-15 -8 -18 -26 -19 -118 -1 -59 -6 -126 -12 -148 -7 -22 -15 -83 -18 -135 -5
-78 -3 -117 15 -206 12 -61 21 -135 19 -165 l-3 -54 -35 0 c-28 0 -38 6 -57
34 -22 32 -23 44 -23 188 0 158 -13 198 -26 82 -4 -33 -13 -63 -20 -67 -7 -4
-66 -4 -130 1 -65 4 -138 4 -165 -1 -45 -8 -51 -7 -64 12 -10 13 -15 45 -15
88 0 38 -4 68 -9 68 -5 0 -15 -19 -24 -42 -49 -136 -57 -147 -91 -109 -24 27
-35 164 -14 189 30 37 41 81 46 197 3 97 1 128 -12 159 -18 43 -14 53 24 58
21 3 26 10 35 58 l10 55 115 17 c105 16 242 17 360 2 14 -1 39 2 56 8 22 8 57
8 112 2 44 -5 79 -7 76 -3 -5 9 -104 20 -177 21 -35 0 -57 5 -57 12 0 26 -82
105 -135 130 -31 14 -61 26 -68 26 -22 0 -63 44 -80 86 -9 23 -14 44 -11 47 7
7 56 -10 163 -58z m-590 -189 c15 -24 21 -50 21 -94 0 -73 6 -92 31 -92 10 0
19 -7 19 -15 0 -9 7 -18 15 -21 17 -7 39 -79 29 -95 -4 -7 -24 -9 -53 -6 -41
5 -50 2 -78 -24 -21 -18 -33 -38 -33 -53 0 -31 88 -164 113 -172 16 -5 17 -12
11 -47 -16 -101 -35 -108 -109 -43 -27 24 -53 42 -58 39 -4 -2 -7 -66 -6 -141
1 -75 -1 -180 -3 -232 -4 -93 -5 -95 -29 -95 -20 0 -30 12 -58 70 l-33 70 26
46 c19 35 26 61 26 103 0 30 5 101 11 156 16 147 -10 165 -92 65 -24 -30 -51
-57 -60 -60 -9 -3 -25 -24 -35 -48 -47 -107 -89 -124 -160 -63 -35 31 -38 36
-29 62 7 21 26 37 65 57 30 16 57 32 60 36 3 4 30 29 60 56 52 46 108 139 91
150 -10 5 -130 -40 -145 -55 -30 -30 -79 24 -89 101 -8 65 17 91 113 113 139
33 193 57 212 96 11 22 16 48 13 70 -6 49 42 100 96 100 32 0 41 -5 58 -34z
m1375 -374 c32 -47 31 -60 -2 -36 -23 16 -112 144 -112 160 1 12 78 -72 114
-124z m-1984 48 c0 -4 -7 -14 -17 -21 -9 -8 -31 -45 -50 -84 -28 -59 -33 -80
-33 -142 0 -40 -1 -73 -2 -73 -2 -1 -33 -3 -71 -6 -37 -3 -80 -10 -95 -15 -18
-5 0 -6 51 -3 89 7 86 12 61 -93 -11 -46 -14 -89 -10 -134 6 -68 40 -194 58
-216 16 -20 -2 -35 -36 -29 -56 10 -157 -11 -236 -50 -41 -21 -76 -37 -78 -35
-2 1 -13 -12 -25 -28 -73 -99 -85 -118 -91 -141 -5 -17 0 -14 13 11 11 21 37
54 57 75 34 36 37 38 45 19 6 -17 8 -15 8 10 1 33 28 55 114 93 36 16 137 42
164 42 1 0 18 -33 37 -74 19 -41 49 -96 67 -123 38 -55 183 -203 199 -203 6 0
8 -4 5 -10 -3 -5 -16 -10 -27 -10 -17 0 -12 -8 27 -42 69 -61 69 -61 105 -28
18 17 36 30 41 30 5 0 9 25 9 55 0 39 7 70 24 103 63 125 197 79 223 -75 6
-36 16 -39 73 -23 l35 10 -3 65 c-3 55 0 73 24 119 19 38 37 59 61 70 45 22
53 21 93 -13 32 -27 34 -32 38 -102 5 -119 5 -119 60 -119 26 -1 82 -7 126
-15 117 -21 148 -59 107 -130 -22 -37 -48 -41 -195 -25 -60 6 -110 9 -112 7
-2 -1 -6 -28 -10 -58 l-6 -56 105 -7 c58 -3 119 -11 136 -17 28 -10 31 -15 33
-55 0 -24 1 -50 2 -56 1 -10 -36 -14 -139 -18 l-140 -5 -3 -66 -3 -67 43 -5
c153 -20 261 -37 313 -50 33 -8 122 -29 197 -47 75 -17 142 -38 148 -45 9 -11
4 -24 -24 -58 -20 -24 -36 -49 -36 -56 0 -15 -89 -14 -165 3 -33 7 -116 29
-185 49 -202 58 -447 84 -519 54 -20 -8 -65 -22 -101 -32 -36 -9 -78 -20 -95
-25 -43 -11 -129 -44 -135 -51 -8 -9 -106 -39 -128 -39 -31 0 -45 62 -25 114
22 56 31 66 62 66 14 0 60 10 101 21 41 11 104 27 140 35 167 36 225 53 236
69 7 10 18 40 24 68 12 59 2 79 -30 59 -11 -6 -31 -12 -45 -12 -36 0 -117 -29
-141 -51 -24 -22 -80 -25 -91 -4 -7 12 -22 6 -83 -30 -81 -48 -80 -63 0 -18
27 15 52 24 56 21 9 -10 -30 -70 -56 -86 -22 -14 -57 -2 -73 25 -5 7 -12 11
-17 8 -5 -3 -21 2 -35 11 -28 18 -35 8 -7 -12 16 -12 15 -15 -12 -43 -37 -38
-55 -38 -159 -2 -126 45 -161 66 -214 128 -26 32 -58 69 -70 83 -29 32 -29 72
0 129 33 64 54 73 81 36 33 -45 189 -206 194 -200 3 3 -26 35 -64 72 -82 80
-144 156 -144 175 0 18 33 47 83 73 41 21 60 39 30 28 -24 -9 -62 -32 -96 -60
-15 -12 -34 -20 -42 -16 -11 3 -13 1 -9 -10 3 -8 -9 -38 -27 -67 -22 -36 -33
-69 -36 -104 -7 -83 -10 -84 -53 -25 -54 75 -134 236 -174 347 -30 87 -45 106
-46 58 -1 -53 -28 36 -45 147 -19 132 -16 199 16 359 23 116 23 117 3 92 -29
-36 -7 72 34 166 62 139 191 313 210 283 6 -9 13 -4 25 16 20 34 93 71 197 99
105 29 170 34 170 12z m1724 -2 c64 -14 158 -51 194 -76 23 -17 60 -83 88
-157 16 -43 42 -160 37 -168 -3 -4 -10 -4 -16 1 -45 32 -228 82 -305 82 l-35
0 6 45 c7 49 -7 134 -29 177 -8 15 -28 43 -45 63 -50 57 -31 63 105 33z m392
-275 c45 -68 109 -213 119 -269 l7 -39 -38 35 c-21 19 -32 26 -23 15 51 -66
87 -372 60 -512 -5 -26 -12 -65 -16 -85 -8 -49 -21 -48 -35 2 -13 49 -23 53
-15 6 7 -36 -17 -115 -74 -239 -45 -101 -141 -259 -154 -254 -6 2 -14 14 -18
28 -4 13 -7 20 -8 14 -1 -5 -15 -26 -31 -45 -17 -19 -47 -56 -68 -82 -38 -47
-118 -92 -235 -132 -72 -24 -95 -21 -142 22 -23 20 -81 59 -129 86 l-86 48 1
87 c1 124 11 146 100 209 41 30 94 72 119 95 25 22 59 44 75 48 22 6 18 7 -17
3 -27 -3 -49 -1 -53 6 -3 5 -2 10 3 10 15 0 143 123 187 180 39 51 105 175
105 198 0 18 31 22 78 10 56 -13 157 -59 191 -87 24 -18 24 -22 14 -67 -14
-60 -8 -71 7 -15 6 23 15 41 20 41 12 0 34 -23 71 -75 34 -47 50 -54 28 -13
-13 26 -69 100 -82 109 -4 3 -4 80 2 170 5 90 8 175 6 189 -14 93 -13 120 6
120 10 0 21 -4 24 -10 3 -5 11 -10 17 -10 6 0 -2 11 -18 25 -16 14 -32 25 -36
25 -4 0 -10 17 -13 38 -4 20 -22 85 -41 145 -19 59 -34 110 -34 115 1 13 86
-85 126 -145z m-286 -73 c73 -16 122 -33 175 -60 40 -20 51 -32 58 -60 10 -39
5 -416 -6 -427 -4 -3 -41 10 -82 31 -77 38 -194 64 -241 52 -12 -3 -25 -2 -29
4 -3 5 6 43 20 85 40 114 42 222 9 358 -6 25 -4 27 22 27 16 0 49 -5 74 -10z
m-505 -1397 c54 -26 68 -45 43 -57 -7 -3 -3 -3 10 0 15 4 30 -1 43 -12 27 -25
24 -34 -13 -34 -36 1 -72 22 -60 35 4 5 1 5 -5 1 -19 -10 -49 9 -72 48 -35 56
-27 59 54 19z m-1091 -74 c14 -13 2 -20 -43 -26 -45 -6 -50 0 -24 29 16 18 46
17 67 -3z"/>
<path d="M1133 2963 c9 -2 25 -2 35 0 9 3 1 5 -18 5 -19 0 -27 -2 -17 -5z"/>
<path d="M2690 2949 c0 -5 5 -7 10 -4 6 3 10 8 10 11 0 2 -4 4 -10 4 -5 0 -10
-5 -10 -11z"/>
<path d="M2114 2798 c-62 -26 -74 -35 -89 -69 -14 -30 -24 -39 -42 -39 -21 0
-22 -3 -13 -20 11 -20 11 -20 38 0 22 16 50 21 157 26 l130 7 28 -29 c19 -19
27 -36 25 -53 l-3 -26 -100 3 c-90 4 -103 2 -127 -17 -29 -23 -94 -31 -135
-16 -21 7 -23 4 -23 -34 0 -45 8 -49 57 -30 15 6 66 15 112 20 74 8 90 7 145
-12 33 -12 71 -31 83 -42 13 -11 25 -18 27 -16 3 2 8 68 11 146 6 123 4 147
-11 178 -20 43 -17 42 -119 48 -73 5 -86 3 -151 -25z"/>
<path d="M2095 2428 c-46 -10 -55 -21 -55 -70 l0 -38 53 0 c28 0 69 -3 90 -7
34 -5 38 -4 35 13 -2 13 3 19 15 18 14 -2 17 6 17 42 l0 44 -37 1 c-21 0 -47
2 -58 3 -11 1 -38 -2 -60 -6z"/>
<path d="M2381 2374 c0 -11 3 -14 6 -6 3 7 2 16 -1 19 -3 4 -6 -2 -5 -13z"/>
<path d="M681 2524 c0 -11 3 -14 6 -6 3 7 2 16 -1 19 -3 4 -6 -2 -5 -13z"/>
<path d="M636 2398 c-3 -13 -5 -32 -5 -43 1 -11 5 -2 10 19 10 42 6 62 -5 24z"/>
<path d="M621 2313 c0 -13 -10 -28 -21 -35 -11 -7 -20 -16 -20 -21 0 -4 5 -5
10 -2 6 4 11 -23 12 -72 l1 -78 6 80 c7 84 14 105 35 105 7 0 21 7 32 16 18
15 18 15 -3 5 -30 -15 -41 -14 -46 7 -4 13 -5 12 -6 -5z"/>
<path d="M603 1935 c0 -38 2 -53 4 -32 2 20 2 52 0 70 -2 17 -4 1 -4 -38z"/>
<path d="M641 1704 c0 -11 3 -14 6 -6 3 7 2 16 -1 19 -3 4 -6 -2 -5 -13z"/>
<path d="M666 1628 c13 -43 23 -68 28 -68 3 0 -2 20 -11 45 -15 45 -31 65 -17
23z"/>
<path d="M701 1545 c0 -5 6 -21 14 -35 8 -14 14 -20 14 -15 0 6 -6 21 -14 35
-8 14 -14 21 -14 15z"/>
<path d="M1128 1473 c6 -2 18 -2 25 0 6 3 1 5 -13 5 -14 0 -19 -2 -12 -5z"/>
<path d="M765 1413 c8 -18 18 -33 20 -33 10 0 4 16 -16 40 l-20 25 16 -32z"/>
<path d="M1654 1330 c-48 -10 -134 -56 -152 -82 -7 -10 -24 -18 -38 -18 -13 0
-24 -1 -24 -2 0 -2 6 -22 13 -46 l13 -43 27 31 c15 16 37 30 50 30 21 0 172
40 210 55 9 4 17 18 17 30 0 13 3 30 6 39 5 13 -2 16 -37 15 -24 -1 -62 -5
-85 -9z"/>
<path d="M1075 1050 c3 -5 8 -10 11 -10 2 0 4 5 4 10 0 6 -5 10 -11 10 -5 0
-7 -4 -4 -10z"/>
<path d="M1100 1032 c0 -8 100 -75 105 -70 1 2 -21 20 -51 40 -30 20 -54 34
-54 30z"/>
<path d="M3087 1613 c-4 -3 -7 -13 -7 -22 1 -13 3 -13 11 2 11 19 8 33 -4 20z"/>
<path d="M3032 1486 c-17 -37 -15 -45 4 -18 8 12 14 27 12 33 -2 6 -9 -1 -16
-15z"/>
<path d="M2807 1409 c7 -7 15 -10 18 -7 3 3 -2 9 -12 12 -14 6 -15 5 -6 -5z"/>
<path d="M2860 1370 c14 -11 28 -20 31 -20 3 0 12 -11 19 -25 12 -22 10 -28
-25 -72 -21 -26 -61 -73 -89 -103 -46 -49 -47 -51 -8 -15 24 22 67 68 95 102
48 60 51 62 69 46 20 -18 23 -11 8 18 -8 13 -7 26 0 42 10 20 10 20 -3 5 -19
-24 -26 -22 -67 12 -19 17 -39 30 -45 30 -5 0 1 -9 15 -20z"/>
<path d="M2981 1243 c7 -12 15 -20 18 -17 3 2 -3 12 -13 22 -17 16 -18 16 -5
-5z"/>
<path d="M2684 1048 l-19 -23 23 19 c21 18 27 26 19 26 -2 0 -12 -10 -23 -22z"/>
<path d="M2620 1005 c-7 -8 -9 -15 -6 -15 4 0 14 7 22 15 9 8 11 15 6 15 -5 0
-15 -7 -22 -15z"/>
<path d="M2565 970 c-3 -6 1 -7 9 -4 18 7 21 14 7 14 -6 0 -13 -4 -16 -10z"/>
<path d="M3433 2642 c-39 -10 -74 -20 -78 -24 -4 -3 3 -28 15 -55 96 -212 141
-421 144 -673 2 -99 7 -175 12 -175 5 1 44 5 87 9 91 10 90 8 91 151 3 257
-47 515 -143 738 -23 53 -22 53 -128 29z"/>
<path d="M197 2563 c-42 -101 -69 -196 -98 -338 -25 -122 -39 -456 -20 -479 9
-11 146 -33 171 -27 3 1 3 56 2 124 -7 231 43 495 128 684 36 79 37 91 8 97
-13 3 -36 8 -53 11 -16 4 -46 9 -66 12 l-35 5 -37 -89z"/>
<path d="M213 1462 c-39 -20 -74 -42 -77 -49 -7 -18 66 -218 119 -323 45 -91
113 -209 126 -220 3 -3 10 -12 15 -21 35 -62 189 -234 208 -233 23 2 146 77
146 89 0 6 -23 35 -51 65 -56 61 -175 215 -208 270 -52 86 -111 217 -152 334
-24 69 -46 126 -49 126 -3 -1 -37 -18 -77 -38z"/>
<path d="M3456 1443 c-74 -248 -215 -499 -370 -661 -34 -35 -62 -67 -64 -71
-3 -8 131 -91 146 -91 5 0 33 26 63 58 142 148 279 372 361 592 59 154 61 142
-29 189 -43 23 -81 41 -84 41 -3 0 -14 -26 -23 -57z"/>
<path d="M897 533 c-24 -59 -47 -123 -47 -131 0 -9 182 -118 240 -145 165 -74
271 -110 422 -142 65 -14 140 -25 166 -25 l48 0 26 78 c15 42 24 80 20 84 -4
3 -38 11 -77 17 -148 21 -199 33 -303 66 -120 40 -316 133 -407 194 -33 22
-63 41 -66 41 -3 0 -13 -17 -22 -37z"/>
<path d="M2793 530 c-67 -49 -280 -154 -383 -188 -110 -36 -255 -68 -352 -77
-38 -4 -68 -9 -68 -12 0 -3 12 -41 28 -85 l27 -79 60 4 c144 9 381 77 550 158
80 38 265 145 265 154 0 1 -13 36 -30 76 -16 41 -30 75 -30 77 0 10 -33 -3
-67 -28z"/>
</g>
</svg>
